<?xml version="1.0" encoding="UTF-8"?>
<svg width="87px" height="86px" viewBox="0 0 87 86" version="1.1" xmlns="http://www.w3.org/2000/svg" xmlns:xlink="http://www.w3.org/1999/xlink">
    <!-- Generator: Sketch 54.1 (76490) - https://sketchapp.com -->
    <title>Logo</title>
    <desc>Created with Sketch.</desc>
    <defs>
        <polygon id="path-1" points="0.274910734 0.0623654684 63.8289718 0.0623654684 63.8289718 68.9705882 0.274910734 68.9705882"></polygon>
    </defs>
    <g id="Infographic" stroke="none" stroke-width="1" fill="none" fill-rule="evenodd">
        <g id="Home" transform="translate(-975.000000, -199.000000)">
            <g id="Group" transform="translate(378.000000, 162.000000)">
                <g id="Logo" transform="translate(640.500000, 80.000000) rotate(-270.000000) translate(-640.500000, -80.000000) translate(597.000000, 37.000000)">
                    <g id="Group-3" transform="translate(0.500000, -0.000000)" fill="#9D3367">
                        <path d="M23.1287623,81.3078814 C14.9212623,77.1057475 8.88697658,70.6577654 4.69090515,62.373935 C1.51411943,56.1020332 0.0155480038,49.3831582 0.00983371804,42.31981 C0.000548003754,32.0163636 -0.00766628196,21.7125511 0.012333718,11.4087386 C0.0251908609,4.93769394 4.74019086,-0.0284310635 10.7844766,0.000122507886 C16.740548,0.0283100079 21.4144766,4.98235465 21.4298337,11.35456 C21.4534051,21.1096314 21.680548,30.8727564 21.3734051,40.6175779 C21.0026909,52.3651761 28.2609051,62.15356 39.6734051,64.2441939 C34.1584051,69.9318457 28.6434051,75.6198636 23.1287623,81.3078814" id="Fill-1"></path>
                    </g>
                    <g id="Group-6" transform="translate(22.500000, 17.000000)">
                        <mask id="mask-2" fill="white">
                            <use xlink:href="#path-1"></use>
                        </mask>
                        <g id="Clip-5"></g>
                        <path d="M0.274910734,63.8970169 C5.85809718,58.2268317 11.4416452,52.5566465 17.0251932,46.8868263 C28.4316565,48.2253666 36.6348655,41.7092881 40.0030011,34.1834657 C41.2020068,31.5038306 41.8315209,28.6873491 41.9331254,25.7519025 C41.9815774,24.3593535 42.0039955,22.9660746 42.0383458,21.5727958 C43.1147751,20.5159766 44.2006056,19.4693753 45.2665492,18.4016084 C51.3649898,12.2913252 57.4587299,6.17629793 63.554278,0.0623654684 C63.5593401,10.5010093 64.3725379,20.9841737 63.1767864,31.3658894 C61.1504814,48.9541193 47.1326734,64.049555 29.9322215,67.8710365 C20.0769446,70.060579 10.5984362,68.9804047 1.48187119,64.6316084 C1.05918192,64.4298056 0.676266667,64.1437053 0.274910734,63.8970169" id="Fill-4" fill="#6F2D76" mask="url(#mask-2)"></path>
                    </g>
                    <g id="Group-9" transform="translate(64.500000, 1.000000)" fill="#5A297D">
                        <path d="M21.5553836,17.0675693 C15.4758098,23.1172638 9.39731803,29.1687638 3.31449836,35.2152082 C2.2516459,36.2718193 1.16859672,37.3071249 0.0945639344,38.3529027 C0.0736459016,28.9271805 -0.0836,19.4982082 0.0837442623,10.0750138 C0.182203279,4.50234713 5.21335082,0.0339582375 10.8146951,0.0285415709 C16.4171213,0.0234860153 21.279482,4.48031935 21.5946951,10.0511805 C21.7270557,12.3817916 21.5773836,14.7282916 21.5553836,17.0675693" id="Fill-7"></path>
                    </g>
                    <path d="M40.1,49.15 L40.1,33.85 L50.3,41.5 L40.1,49.15 Z M43.5,24.5 C34.1111593,24.5 26.5,32.1111593 26.5,41.5 C26.5,46.0086803 28.2910663,50.3326968 31.4791847,53.5208153 C34.6673032,56.7089337 38.9913197,58.5 43.5,58.5 C48.0086803,58.5 52.3326968,56.7089337 55.5208153,53.5208153 C58.7089337,50.3326968 60.5,46.0086803 60.5,41.5 C60.5,36.9913197 58.7089337,32.6673032 55.5208153,29.4791847 C52.3326968,26.2910663 48.0086803,24.5 43.5,24.5 Z" id="Shape" fill="#7B2F73" fill-rule="nonzero" transform="translate(43.500000, 41.500000) rotate(-90.000000) translate(-43.500000, -41.500000) "></path>
                </g>
            </g>
        </g>
    </g>
</svg>